<svg id="Layer_1" data-name="Layer 1" xmlns="http://www.w3.org/2000/svg" viewBox="0 0 41 41"><circle cx="20.5" cy="20.5" r="20" style="fill:#f7f8f8;stroke:#b5b5b6;stroke-miterlimit:10"/><path d="M276.49,288h0a1.77,1.77,0,0,0,0-.23.43.43,0,0,0,0-.11,2199631296328.43,2199631296328.43,0,0,0,0-.24l0-.09h0l0-.12a.42.42,0,0,0,0-.1.31.31,0,0,0-.05-.1.42.42,0,0,0,0-.1h0a.31.31,0,0,1,0-.1l-.07-.1-.07-.1-.06-.08h0l-.16-.18-5.64-5.64a2.36,2.36,0,0,0-3.34,3.33l1.62,1.62h-21a2.36,2.36,0,0,0-2.35,2.36h0a2.36,2.36,0,0,0,2.35,2.36h21L266.82,292a2.36,2.36,0,0,0,3.34,3.33l5.64-5.64h0a1.29,1.29,0,0,0,.16-.17l.06-.08.07-.1a.61.61,0,0,0,.07-.1.31.31,0,0,1,0-.1.37.37,0,0,0,.05-.11.31.31,0,0,0,.05-.1.42.42,0,0,0,0-.1l0-.12,0-.1a.5.5,0,0,0,0-.12.5.5,0,0,0,0-.12.43.43,0,0,0,0-.11A1.69,1.69,0,0,0,276.49,288Z" transform="translate(-240.28 -267.49)" style="fill:#b5b5b6"/></svg>