<svg id="Layer_1" data-name="Layer 1" xmlns="http://www.w3.org/2000/svg" viewBox="0 0 40 40"><circle cx="20" cy="20" r="19.51" style="fill:#f7f8f8"/><path d="M20,40A20,20,0,1,1,40,20,20,20,0,0,1,20,40ZM20,1A19,19,0,1,0,39,20,19,19,0,0,0,20,1Z" style="fill:#b5b5b6"/><path d="M35.33,20h0a1.77,1.77,0,0,0,0-.23s0-.06,0-.1a.5.5,0,0,0,0-.12.36.36,0,0,0,0-.11l0-.09v0s0-.07,0-.11a.42.42,0,0,0,0-.1l0-.1a.36.36,0,0,1,0-.09h0l-.06-.1-.06-.1a.86.86,0,0,1-.07-.1l-.06-.07h0l-.15-.17-5.51-5.5a2.3,2.3,0,0,0-3.25,3.25l1.58,1.58H7A2.3,2.3,0,0,0,4.67,20h0A2.3,2.3,0,0,0,7,22.3H27.48L25.9,23.88a2.3,2.3,0,0,0,3.25,3.25l5.51-5.5h0l.15-.16.06-.08a.86.86,0,0,1,.07-.1l.06-.1.06-.1,0-.1,0-.1a.42.42,0,0,0,0-.1.76.76,0,0,0,0-.11l0-.11a.36.36,0,0,0,0-.11.5.5,0,0,0,0-.12s0-.07,0-.1A1.77,1.77,0,0,0,35.33,20Z" style="fill:#b5b5b6"/></svg>