<?xml version="1.0" encoding="UTF-8"?>
<svg id="_레이어_1" data-name=" 레이어 1" xmlns="http://www.w3.org/2000/svg" version="1.1" xmlns:xlink="http://www.w3.org/1999/xlink" viewBox="0 0 579.4 157.1">
  <defs>
    <style>
      .cls-1 {
        fill: #fff000;
      }

      .cls-1, .cls-2, .cls-3, .cls-4 {
        fill-rule: evenodd;
        stroke-width: 0px;
      }

      .cls-2 {
        fill: url(#_무제_그라디언트_3);
      }

      .cls-3 {
        fill: url(#_무제_그라디언트_2);
      }

      .cls-4 {
        fill: url(#_무제_그라디언트);
      }
    </style>
    <linearGradient id="_무제_그라디언트" data-name="무제 그라디언트" x1="178.3" y1="29.4" x2="350.9" y2="29.4" gradientTransform="translate(0 160) scale(1 -1)" gradientUnits="userSpaceOnUse">
      <stop offset="0" stop-color="#1d2087"/>
      <stop offset="1" stop-color="#009fe8"/>
    </linearGradient>
    <linearGradient id="_무제_그라디언트_2" data-name="무제 그라디언트 2" x1="1.6" y1="69" x2="577.9" y2="69" gradientTransform="translate(0 160) scale(1 -1)" gradientUnits="userSpaceOnUse">
      <stop offset="0" stop-color="#1d2087"/>
      <stop offset="1" stop-color="#009fe8"/>
    </linearGradient>
    <linearGradient id="_무제_그라디언트_3" data-name="무제 그라디언트 3" x1="160.7" y1="115.9" x2="201" y2="115.9" gradientTransform="translate(0 160) scale(1 -1)" gradientUnits="userSpaceOnUse">
      <stop offset="0" stop-color="#e50012"/>
      <stop offset="1" stop-color="#fff000"/>
    </linearGradient>
  </defs>
  <path class="cls-1" d="M346.4,60.2h34C390.2-8.6,297.5-3.9,253.3,17.2c-22.5,10.7-38.4,24.8-53.6,39.3,22.3-16.4,45.8-29,72.5-36.2,30.6-8.2,75.1-1.9,74.2,39.9h0Z"/>
  <path class="cls-4" d="M320.2,107.7c10.2,0,20.5,0,30.7-.2-26.5,27.2-62.3,42.8-107.9,46.2-39.7,0-58.2-16.9-64.7-43.2,37.8,50.9,94.5,32,141.9-2.8Z"/>
  <path class="cls-3" d="M56.4,98.5c0,.8-.2,1.7-.6,2.8-.4,1.1-1.1,2-2.1,2.8s-2.2,1.2-3.7,1.2H1.6v-26.3h37.4c.6,0,1.3-.3,2.1-.9.9-.6,1.3-1.4,1.3-2.4s-.4-1.5-1-2.2c-.7-.8-1.6-1.1-2.8-1.1H1.6v-9.8h45c1.3,0,2.6.4,3.8,1.3,1.2.8,2.2,1.9,2.9,3.1s1.1,2.3,1.1,3.3v6.1c0,1.1-.2,2-.4,2.7-.3.7-.7,1.3-1.2,1.8s-1.4,1.2-2.6,2.1c1.9,1.3,3.4,2.5,4.5,3.6s1.7,2.3,1.7,3.5v8.5h0ZM43.6,92.3c0-2-1-2.9-3-2.9H13.9v5.7h27.2c.7,0,1.4-.3,1.8-.8.5-.5.7-1.2.7-1.9h0ZM114.5,105.4h-35.8c-1.9,0-3.8-.7-5.6-2-1.8-1.4-3.3-3-4.5-4.8s-1.8-3.3-1.8-4.3v-31.5h11.8v25.7c0,1.4.4,2.7,1.2,3.7.8,1.1,1.7,1.9,2.8,2.4,1.1.5,2,.8,2.6.8h29.2v10.1h.1ZM178.3,93.8c0,1.4-.6,3.1-1.7,4.9-1.1,1.8-2.5,3.4-4.2,4.7-1.7,1.3-3.4,2-5.1,2h-30.1c-2.4,0-4.7-.7-6.7-2.1-2.1-1.4-3.7-3.2-4.9-5.3-1.2-2.2-1.8-4.2-1.8-6.3v-29h12.1v25.8c0,1.2.4,2.3,1,3.2.7,1,1.5,1.8,2.4,2.3.9.6,1.7.9,2.4.9h18.5c.8,0,1.6-.3,2.5-1s1.6-1.5,2.2-2.4c.6-.9.9-1.7.9-2.4v-26.5h12.6v31.1h0ZM245.3,82.2c0,1.9-.5,3.5-1.5,4.8s-2.7,2-5.1,2h-39v2c0,1.1.4,2.1,1.2,3s1.7,1.4,2.7,1.4h41v10.1h-43.3c-2.9,0-5.4-.7-7.5-2.3-2.1-1.5-3.7-3.3-4.8-5.3s-1.6-3.7-1.6-5v-18.5c0-1.4.4-2.8,1.2-4.2.8-1.4,1.8-2.7,3.1-3.8,1.3-1.1,2.6-2,4.1-2.7s2.7-1,4-1h35.4c1,0,2.1.3,3.4.9,1.2.6,2.4,1.4,3.4,2.3s1.8,1.9,2.5,3c.6,1.1.9,2,.9,3v10.3h0ZM233.3,75.9c0-.9-.4-1.6-1.1-2.2-.8-.6-1.6-.8-2.5-.8h-25.6c-1.1,0-2.1.4-3,1.4s-1.3,2-1.3,3.1v1.8h33.5v-3.2h0ZM310,98.8c0,1.8-.5,3.3-1.6,4.6-1,1.3-2.5,1.9-4.4,1.9h-49.4v-10.5h39.6c.7,0,1.4-.3,2.2-.8.8-.5,1.2-1.3,1.2-2.3s-.2-1.1-.5-1.6-.8-.9-1.5-1.2-1.4-.4-2.1-.4h-30c-1.4,0-2.7-.4-3.8-1.1-1.1-.7-2-1.6-2.6-2.5-.6-1-.9-1.8-.9-2.4v-13.9c0-1.2.7-2.5,2-3.9s3-2.2,5.1-2.2h44.4v10.1h-36.6c-.8,0-1.4.3-1.8,1-.5.6-.7,1.3-.7,2s.3,1.3.9,2,1.5,1.1,2.7,1.1h30.1c2.7,0,4.6.7,5.9,2,1.3,1.4,1.9,3.2,1.9,5.4v12.5h0v.2ZM375.8,105.4h-12.3v-16.1h-22.8v-10.4h22.8v-16.3h12.3v42.8h0ZM333,105.4h-12.1v-42.6h12.1v42.6h0ZM445.1,105.4h-12.8v-3c-.3.7-1,1.4-2,2.1-1,.6-1.9.9-2.7.9h-34.7c-.9,0-1.9-.2-2.8-.7s-1.7-1.2-2.3-2c-.6-.9-.9-1.9-.9-2.9v-13.1c0-2.4.6-4.3,1.9-5.7,1.3-1.4,2.8-2.1,4.5-2.1h32.8c1.5,0,2.8.4,4,1.2,1.1.8,2,1.5,2.4,2.3v-3.9c0-.8-.2-1.6-.7-2.5-.5-.8-1.2-1.5-2.1-2.1s-1.9-.8-3.1-.8h-39.3v-10.4h44.3c1.9,0,3.6.5,5.3,1.4s3.1,2.1,4.4,3.6c1.2,1.5,2.3,3,3,4.5.7,1.6,1.1,3,1.1,4.2v29h-.3ZM429.8,92.1c0-.5-.2-1-.6-1.5-.4-.4-.9-.8-1.5-1.1-.6-.3-1.1-.4-1.4-.4h-24.2c-1.1,0-1.9.4-2.3,1.1-.4.8-.7,1.3-.7,1.7,0,.9.3,1.6.9,2.1s1.1.8,1.7.8h25.3c.6,0,1.2-.3,1.8-.9.7-.6,1-1.2,1-2h0v.2ZM528.4,119.3h-16l-28.1-30.2h-15.9v16.3h-12.4v-26.5h38.6c.8,0,1.5-.3,2.3-.8.8-.6,1.1-1.4,1.1-2.4s-.2-1.3-.5-1.8c-.4-.4-.8-.7-1.4-1-.6-.2-1.2-.3-1.9-.3h-38.2v-9.9h46.6c2.2,0,4,.8,5.6,2.4,1.6,1.6,2.3,3.4,2.3,5.7v10.7c0,1.9-.4,3.4-1.1,4.4-.8,1-1.7,1.8-2.7,2.2-1.1.4-2.3.7-3.7.8-1.4.2-2.2.3-2.4.4l27.8,30.2h0v-.2ZM577.8,105.3h-17.9l-20.3-16.8v-9.8l19.4-16.1h16.4l-24.4,20.8,26.9,21.8h-.1ZM532.1,105.3v-42.6h-12.1v42.6h12.1Z"/>
  <path class="cls-2" d="M169.4,53.4c13.8-4.6,23.7-3.3,29.1,4.4-11.8-5.7-20-5.2-27,3.1-1.3-1.7-2.1-3.2-2.2-7.6h0ZM163,40.7c-1.1,2.3-1.5,4.4-1,6.2,15.2-3.1,27.7,0,37.7,9.7-9.4-12-21.6-17.3-36.7-16h0ZM165.4,27.3c-1.9,1.6-3.5,4.3-4.8,8,16.9-.9,30.4,6,40.3,20.5-9.4-14.9-21.2-24.4-35.6-28.5h.1Z"/>
</svg>