<svg id="Layer_1" data-name="Layer 1" xmlns="http://www.w3.org/2000/svg" viewBox="0 0 575.56 73.52"><defs><style>.cls-1{fill:#dcdddd;}</style></defs><path class="cls-1" d="M145.94,72.18h-7.35c-.7,0-1.05-.39-1.05-1.16V6.23c0-.77.35-1.15,1.05-1.15h7.35c.7,0,1.05.38,1.05,1.15V71C147,71.79,146.64,72.18,145.94,72.18Z" transform="translate(-1.67)"/><path class="cls-1" d="M184.07,72.09a.82.82,0,0,1-.69-.4,1.44,1.44,0,0,1-.28-.85V42.54q0-6.4-1.82-9.25a6.26,6.26,0,0,0-5.69-2.85c-3.56,0-6.18,1.08-7.88,3.25s-2.54,5.29-2.54,9.39V70.93c0,.77-.33,1.16-1,1.16h-6.71a.82.82,0,0,1-.69-.4,1.5,1.5,0,0,1-.27-.85V35.42c0-2.25,0-4.42,0-6.49s-.1-3.71-.21-4.9c-.11-.77.27-1.16,1.13-1.16h6.38c.59,0,.84.25.73.73l-.08,3.23a18.61,18.61,0,0,1,4.85-3.67,13.5,13.5,0,0,1,6.54-1.53q7.75,0,11.83,5t4.08,14.55V70.93c0,.77-.32,1.16-1,1.16Z" transform="translate(-1.67)"/><path class="cls-1" d="M225,71.38a12,12,0,0,1-3.59,1.47,20.38,20.38,0,0,1-5.29.67A8.72,8.72,0,0,1,210.72,72a10,10,0,0,1-3-3.61,14.94,14.94,0,0,1-1.37-5.43q-.24-3.11-.24-8.45V32.13h-6.71a.87.87,0,0,1-.68-.31,1.08,1.08,0,0,1-.28-.76V24a1.08,1.08,0,0,1,.28-.76.91.91,0,0,1,.68-.31h6.71V10.5a1.08,1.08,0,0,1,1-1.06h6.54a1,1,0,0,1,.77.31,1.08,1.08,0,0,1,.29.75V23h7.75a.94.94,0,0,1,.69.31,1.13,1.13,0,0,1,.28.76v7a1.13,1.13,0,0,1-.28.76.91.91,0,0,1-.69.31h-7.75v23a67.91,67.91,0,0,0,.24,7.65,2.28,2.28,0,0,0,1.53,2,7,7,0,0,0,2.74.17c.71-.12,1.49-.28,2.35-.49a12.18,12.18,0,0,0,2.26-.76c.27-.11.46-.13.56,0a1.71,1.71,0,0,1,.33.84l.65,5.88A1.18,1.18,0,0,1,225,71.38Z" transform="translate(-1.67)"/><path class="cls-1" d="M264.36,49.75a1.46,1.46,0,0,1-.36,1.07,1.09,1.09,0,0,1-.77.36H236.65a17.22,17.22,0,0,0,3.4,9.74,9.84,9.84,0,0,0,8.16,3.79,28.6,28.6,0,0,0,6.06-.76,18.43,18.43,0,0,0,6.21-2.63c.38-.24.62-.21.73.09a3.37,3.37,0,0,1,.16,1.16v6.14a2.65,2.65,0,0,1-.24,1.24,2.58,2.58,0,0,1-1,.89,17.72,17.72,0,0,1-5.69,2,35.31,35.31,0,0,1-6.67.63q-10,0-15.14-6.64t-5.13-19.44A39.19,39.19,0,0,1,228.66,38a27.68,27.68,0,0,1,3.43-8.28,18.46,18.46,0,0,1,5.85-5.88,15.59,15.59,0,0,1,8.41-2.22,16.11,16.11,0,0,1,8.36,2,16.63,16.63,0,0,1,5.61,5.52,24.6,24.6,0,0,1,3.15,8.1,47.92,47.92,0,0,1,1,9.88c0,.42,0,.89,0,1.42S264.36,49.52,264.36,49.75ZM246.67,30.17a7.16,7.16,0,0,0-3.88,1.07,10.15,10.15,0,0,0-2.9,2.76,15.1,15.1,0,0,0-2,3.91,23.47,23.47,0,0,0-1.09,4.45h18.49a16.46,16.46,0,0,0-.52-3.91,15.3,15.3,0,0,0-1.57-4,10.56,10.56,0,0,0-2.67-3.07A6.18,6.18,0,0,0,246.67,30.17Z" transform="translate(-1.67)"/><path class="cls-1" d="M293.85,31.86a18.12,18.12,0,0,0-2.83-.57,6.56,6.56,0,0,0-2.1,0A7,7,0,0,0,285,33.6a11.63,11.63,0,0,0-2.26,4,22.09,22.09,0,0,0-1,5q-.24,2.67-.24,5.07V70.84c0,.83-.33,1.25-1,1.25h-6.71c-.59,0-.88-.45-.88-1.34V34.89q0-2.85-.09-5.7c0-1.9-.07-3.56-.07-5,0-.54.07-.88.24-1a1.2,1.2,0,0,1,.8-.22h6.71c.37,0,.59.06.64.18a1.54,1.54,0,0,1,.09.63v4a10.88,10.88,0,0,1,1.49-2.16,14.14,14.14,0,0,1,2-1.93A10.84,10.84,0,0,1,287,22.3a5.29,5.29,0,0,1,2.1-.5c1,0,1.95,0,2.79.05a5.14,5.14,0,0,1,2.62.94.78.78,0,0,1,.49.57,4.18,4.18,0,0,1,.08.76v6.67a1.76,1.76,0,0,1-.24.81C294.65,31.89,294.33,32,293.85,31.86Z" transform="translate(-1.67)"/><path class="cls-1" d="M327.61,72.09a.8.8,0,0,1-.68-.4,1.39,1.39,0,0,1-.29-.85V42.54q0-6.4-1.81-9.25a6.28,6.28,0,0,0-5.7-2.85q-5.33,0-7.88,3.25t-2.54,9.39V70.93c0,.77-.32,1.16-1,1.16H301a.82.82,0,0,1-.68-.4,1.44,1.44,0,0,1-.28-.85V35.42c0-2.25,0-4.42,0-6.49s-.1-3.71-.2-4.9c-.11-.77.26-1.16,1.13-1.16h6.38c.59,0,.83.25.72.73L308,26.83a18.78,18.78,0,0,1,4.85-3.67,13.56,13.56,0,0,1,6.54-1.53q7.75,0,11.84,5t4.07,14.55V70.93c0,.77-.32,1.16-1,1.16Z" transform="translate(-1.67)"/><path class="cls-1" d="M370.91,72.09a1.39,1.39,0,0,1-.73-.13c-.11-.09-.16-.32-.16-.67v-4A12.92,12.92,0,0,1,364.89,72a14,14,0,0,1-6.26,1.56,18,18,0,0,1-6.09-1,12.54,12.54,0,0,1-4.77-2.94,13.68,13.68,0,0,1-3.11-4.84A18.48,18.48,0,0,1,343.53,58a20.28,20.28,0,0,1,1.45-8,13.43,13.43,0,0,1,4.57-5.69A21.29,21.29,0,0,1,357.5,41a52.62,52.62,0,0,1,11.72-1.12,17.68,17.68,0,0,0-.33-3.38,9.42,9.42,0,0,0-1.09-3,6,6,0,0,0-2.14-2.18,6.48,6.48,0,0,0-3.48-.85,19,19,0,0,0-6.58,1.07,24.51,24.51,0,0,0-5.53,2.84c-.86.6-1.44.87-1.73.81s-.45-.39-.45-1V27.41a6.63,6.63,0,0,0,0-.75A1,1,0,0,1,348,26a4.54,4.54,0,0,1,1.21-1,34.52,34.52,0,0,1,5.62-2.49,22.7,22.7,0,0,1,7.23-1q8.16,0,12.07,4.36c2.61,2.91,3.92,7.47,3.92,13.71V60.7c0,1.66,0,3.4,0,5.2s.12,3.4.28,4.77c.11.94-.19,1.42-.88,1.42Zm-14.3-21.36a7.93,7.93,0,0,0-3.87,7.21,6,6,0,0,0,6.54,6.77A8.78,8.78,0,0,0,366.67,61c1.86-2.5,2.79-6.38,2.79-11.67v-1Q360.49,48.33,356.61,50.73Z" transform="translate(-1.67)"/><path class="cls-1" d="M410.57,71.38A11.88,11.88,0,0,1,407,72.85a20.38,20.38,0,0,1-5.29.67A8.67,8.67,0,0,1,396.28,72a9.8,9.8,0,0,1-3-3.61,14.74,14.74,0,0,1-1.37-5.43q-.26-3.11-.25-8.45V32.13H385a.89.89,0,0,1-.69-.31,1.08,1.08,0,0,1-.28-.76V24a1.08,1.08,0,0,1,.28-.76A.93.93,0,0,1,385,23h6.7V10.5a1.08,1.08,0,0,1,1.05-1.06h6.55a1,1,0,0,1,.76.31,1.08,1.08,0,0,1,.29.75V23h7.75a.89.89,0,0,1,.68.31A1.09,1.09,0,0,1,409,24v7a1.09,1.09,0,0,1-.29.76.86.86,0,0,1-.68.31h-7.75v23a67.91,67.91,0,0,0,.24,7.65,2.28,2.28,0,0,0,1.53,2,7,7,0,0,0,2.75.17c.7-.12,1.48-.28,2.34-.49a12.56,12.56,0,0,0,2.27-.76c.26-.11.45-.13.56,0a1.73,1.73,0,0,1,.32.84l.65,5.88A1.18,1.18,0,0,1,410.57,71.38Z" transform="translate(-1.67)"/><path class="cls-1" d="M419.38,13.62a5.05,5.05,0,0,1-3.92-1.75,6.15,6.15,0,0,1-1.57-4.26,6.41,6.41,0,0,1,1.57-4.39,5,5,0,0,1,3.92-1.79,5.12,5.12,0,0,1,4,1.79A6.35,6.35,0,0,1,425,7.61a6.1,6.1,0,0,1-1.62,4.26A5.18,5.18,0,0,1,419.38,13.62ZM415.9,72.27a.92.92,0,0,1-.68-.31,1.1,1.1,0,0,1-.28-.76V24.39a1.08,1.08,0,0,1,.28-.76.89.89,0,0,1,.68-.31h6.79a.89.89,0,0,1,.69.31,1.08,1.08,0,0,1,.28.76V71.2a1.1,1.1,0,0,1-.28.76.93.93,0,0,1-.69.31Z" transform="translate(-1.67)"/><path class="cls-1" d="M467.52,65.33a19.81,19.81,0,0,1-6.95,6.09,21.06,21.06,0,0,1-18.25,0,19.17,19.17,0,0,1-6.63-5.6,24.91,24.91,0,0,1-4-8.28,36.78,36.78,0,0,1-1.33-10.06,36.75,36.75,0,0,1,1.33-10.05,24.61,24.61,0,0,1,4-8.24,19.84,19.84,0,0,1,31.51,0,24.61,24.61,0,0,1,4,8.24,36.75,36.75,0,0,1,1.33,10.05,36.13,36.13,0,0,1-1.29,9.84A25.49,25.49,0,0,1,467.52,65.33Zm-16.08-35A9.72,9.72,0,0,0,446,31.86a12.06,12.06,0,0,0-3.75,4,19.35,19.35,0,0,0-2.18,5.52,26.57,26.57,0,0,0,0,12.37,20,20,0,0,0,2.18,5.56,11.84,11.84,0,0,0,3.75,4,10.61,10.61,0,0,0,10.91,0,11.75,11.75,0,0,0,3.75-4,20,20,0,0,0,2.18-5.56,26.51,26.51,0,0,0,.73-6.19,26.12,26.12,0,0,0-.73-6.09,19.35,19.35,0,0,0-2.18-5.52,12.38,12.38,0,0,0-3.75-4A9.48,9.48,0,0,0,451.44,30.35Z" transform="translate(-1.67)"/><path class="cls-1" d="M508.32,72.09a.82.82,0,0,1-.69-.4,1.44,1.44,0,0,1-.28-.85V42.54q0-6.4-1.82-9.25a6.27,6.27,0,0,0-5.7-2.85c-3.55,0-6.18,1.08-7.87,3.25s-2.55,5.29-2.55,9.39V70.93c0,.77-.32,1.16-1,1.16h-6.7a.82.82,0,0,1-.69-.4,1.51,1.51,0,0,1-.28-.85V35.42c0-2.25,0-4.42,0-6.49s-.1-3.71-.2-4.9c-.11-.77.27-1.16,1.13-1.16H488c.59,0,.83.25.73.73l-.09,3.23a19,19,0,0,1,4.85-3.67,13.57,13.57,0,0,1,6.55-1.53q7.76,0,11.83,5T516,41.21V70.93c0,.77-.32,1.16-1,1.16Z" transform="translate(-1.67)"/><path class="cls-1" d="M551.61,72.09a1.34,1.34,0,0,1-.72-.13c-.11-.09-.16-.32-.16-.67v-4A13,13,0,0,1,545.59,72a13.92,13.92,0,0,1-6.25,1.56,18.07,18.07,0,0,1-6.1-1,12.54,12.54,0,0,1-4.77-2.94,13.68,13.68,0,0,1-3.11-4.84A18.48,18.48,0,0,1,524.23,58a20.28,20.28,0,0,1,1.45-8,13.43,13.43,0,0,1,4.57-5.69,21.43,21.43,0,0,1,8-3.38,52.68,52.68,0,0,1,11.72-1.12,17.68,17.68,0,0,0-.33-3.38,9.66,9.66,0,0,0-1.08-3,6.07,6.07,0,0,0-2.15-2.18,6.47,6.47,0,0,0-3.47-.85,19.06,19.06,0,0,0-6.59,1.07,24.51,24.51,0,0,0-5.53,2.84c-.86.6-1.44.87-1.73.81s-.45-.39-.45-1V27.41a6.63,6.63,0,0,0,0-.75,1,1,0,0,1,.12-.67,4.72,4.72,0,0,1,1.21-1,34.9,34.9,0,0,1,5.62-2.49,22.75,22.75,0,0,1,7.23-1q8.16,0,12.07,4.36c2.62,2.91,3.92,7.47,3.92,13.71V60.7c0,1.66,0,3.4,0,5.2a45.56,45.56,0,0,0,.29,4.77c.1.94-.19,1.42-.89,1.42Zm-14.3-21.36a7.93,7.93,0,0,0-3.87,7.21A6.67,6.67,0,0,0,535.22,63a6.6,6.6,0,0,0,4.76,1.7A8.77,8.77,0,0,0,547.37,61c1.86-2.5,2.79-6.38,2.79-11.67v-1Q541.19,48.33,537.31,50.73Z" transform="translate(-1.67)"/><path class="cls-1" d="M569.39,72.27c-.6,0-.89-.36-.89-1.07V1.07a1.08,1.08,0,0,1,.28-.76.93.93,0,0,1,.69-.31h6.78a.93.93,0,0,1,.69.31,1.08,1.08,0,0,1,.28.76V71.2a1.1,1.1,0,0,1-.28.76.93.93,0,0,1-.69.31Z" transform="translate(-1.67)"/><path class="cls-1" d="M50,38.17a6.68,6.68,0,0,1-6.41,6.92,6.67,6.67,0,0,1-6.4-6.92,6.68,6.68,0,0,1,6.4-6.93A6.68,6.68,0,0,1,50,38.17Z" transform="translate(-1.67)"/><path class="cls-1" d="M22.17,67.64a10.84,10.84,0,0,1-5.46,4.09A21.46,21.46,0,0,1,9.46,73c-.9,0-2,0-3.14-.07a19.69,19.69,0,0,1-2.86-.29c-1.2-.29-1.79-.86-1.79-1.69v-7.3a.72.72,0,0,1,.18-.53.6.6,0,0,1,.45-.18,3.85,3.85,0,0,1,.89.18,12.07,12.07,0,0,0,2.91.46c1.1,0,2,.07,2.73.07a5.34,5.34,0,0,0,4.43-2.09c1.1-1.39,1.66-3.93,1.66-7.6V6.14a1,1,0,0,1,.35-.76,1.23,1.23,0,0,1,.81-.3h8a1.19,1.19,0,0,1,.8.3,1,1,0,0,1,.36.76V53.49a42.46,42.46,0,0,1-.72,8A16.48,16.48,0,0,1,22.17,67.64Z" transform="translate(-1.67)"/><path class="cls-1" d="M98.62,72.09a3.23,3.23,0,0,1-1.39-.22,3.41,3.41,0,0,1-.94-.94L77,42.54,71,49.84V71.11A.94.94,0,0,1,70,72.18H62a1,1,0,0,1-1.07-1.07v-65A.94.94,0,0,1,62,5.08h8A.94.94,0,0,1,71,6.15V34.46l23-28.14a1.73,1.73,0,0,1,1.34-.89h9.76q1,0,1.08.27c0,.18-.09.5-.45,1L83.49,34.53l24.89,36.4c.53.77.29,1.16-.72,1.16Z" transform="translate(-1.67)"/></svg>