<?xml version="1.0" encoding="UTF-8"?>
<svg id="_레이어_1" data-name=" 레이어 1" xmlns="http://www.w3.org/2000/svg" version="1.1" viewBox="0 0 36.9 36.8">
  <defs>
    <style>
      .cls-1 {
        fill: #fff;
        stroke-width: 0px;
      }
    </style>
  </defs>
  <path class="cls-1" d="M36.9,20.2v-3.4l-3.9-.9c-.2-.8-.4-1.6-.6-2.4l3-2.8-1.7-2.9-3.9,1.2c-.5-.6-1.1-1.2-1.8-1.8l1.2-3.9-2.9-1.7-2.8,3c-.8-.3-1.6-.5-2.4-.6L20.1,0h-3.4l-.9,3.9c-.8.2-1.6.4-2.4.6l-2.8-3-2.9,1.7,1.2,3.9c-.6.5-1.2,1.1-1.8,1.8l-3.9-1.2-1.7,2.9,3,2.8c-.3.8-.5,1.6-.6,2.4l-3.9.9v3.4l3.9.9.6,2.4-3,2.8,1.7,2.9,3.9-1.2c.5.6,1.1,1.2,1.8,1.8l-1.2,3.9,2.9,1.7,2.8-3c.8.3,1.6.5,2.4.6l.9,3.9h3.4l.9-3.9c.8-.2,1.6-.4,2.4-.6l2.8,3,2.9-1.7-1.2-3.9c.6-.5,1.2-1.1,1.8-1.8l3.9,1.2,1.7-2.9-3-2.8c.3-.8.5-1.6.6-2.4l4-.8ZM18.4,28.6c-5.6,0-10.1-4.5-10.1-10.1s4.5-10.1,10.1-10.1,10.1,4.5,10.1,10.1-4.5,10.1-10.1,10.1Z"/>
</svg>