<?xml version="1.0" encoding="UTF-8"?>
<svg id="_레이어_1" data-name=" 레이어 1" xmlns="http://www.w3.org/2000/svg" version="1.1" viewBox="0 0 20.6 21.8">
  <defs>
    <style>
      .cls-1 {
        fill: #fff;
        stroke-width: 0px;
      }
    </style>
  </defs>
  <path class="cls-1" d="M19,10.9c0-.8,0-1.5-.3-2.2l1.9-1.8-1.7-2.9-2.5.8c-1-1-2.4-1.8-3.8-2.2l-.6-2.6h-3.4l-.6,2.6c-1.5.4-2.8,1.2-3.8,2.2l-2.5-.8-1.7,2.9,1.9,1.8c-.2.7-.3,1.4-.3,2.2s.1,1.5.3,2.2l-1.9,1.8,1.7,2.9,2.5-.8c1,1,2.4,1.8,3.8,2.2l.6,2.6h3.4l.6-2.6c1.5-.4,2.8-1.2,3.8-2.2l2.5.8,1.7-2.9-1.9-1.8c.2-.7.3-1.4.3-2.2ZM10.3,16.1c-2.9,0-5.2-2.3-5.2-5.2s2.3-5.2,5.2-5.2,5.2,2.3,5.2,5.2-2.3,5.2-5.2,5.2Z"/>
</svg>