<?xml version="1.0" encoding="UTF-8"?>
<svg id="_레이어_1" data-name="레이어 1" xmlns="http://www.w3.org/2000/svg" version="1.1" viewBox="0 0 50.22 46.75">
  <defs>
    <style>
      .cls-1 {
        fill: #fff;
        stroke-width: 0px;
      }
    </style>
  </defs>
  <path class="cls-1" d="M37.22,20.17v-3.38l-3.94-.92c-.15-.83-.36-1.63-.64-2.41l2.95-2.76-1.69-2.93-3.87,1.18c-.54-.63-1.13-1.22-1.76-1.76l1.18-3.87-2.93-1.69-2.76,2.95c-.77-.28-1.58-.49-2.41-.64l-.92-3.94h-3.38l-.92,3.94c-.83.15-1.63.36-2.41.64l-2.76-2.95-2.93,1.69,1.18,3.87c-.63.54-1.22,1.13-1.76,1.76l-3.87-1.18-1.69,2.93,2.95,2.76c-.28.77-.49,1.58-.64,2.41l-3.94.92v3.38l3.94.92c.15.83.36,1.63.64,2.41l-2.95,2.76,1.69,2.93,3.87-1.18c.54.63,1.13,1.22,1.76,1.76l-1.18,3.87,2.93,1.69,2.76-2.95c.77.28,1.58.49,2.41.64l.92,3.94h3.38l.92-3.94c.83-.15,1.63-.36,2.41-.64l2.76,2.95,2.93-1.69-1.18-3.87c.63-.54,1.22-1.13,1.76-1.76l3.87,1.18,1.69-2.93-2.95-2.76c.28-.77.49-1.58.64-2.41l3.94-.92ZM18.73,25.89c-4.09,0-7.41-3.32-7.41-7.41s3.32-7.41,7.41-7.41,7.41,3.32,7.41,7.41-3.32,7.41-7.41,7.41Z"/>
  <path class="cls-1" d="M48.57,35.79c0-.76-.11-1.5-.29-2.2l1.94-1.82-1.69-2.93-2.54.77c-1.05-1.04-2.36-1.8-3.82-2.2l-.6-2.59h-3.38l-.6,2.59c-1.46.4-2.77,1.16-3.82,2.2l-2.54-.77-1.69,2.93,1.94,1.82c-.18.7-.29,1.44-.29,2.2s.11,1.5.29,2.2l-1.94,1.82,1.69,2.93,2.54-.77c1.05,1.04,2.36,1.8,3.82,2.2l.6,2.59h3.38l.6-2.59c1.46-.4,2.77-1.16,3.82-2.2l2.54.77,1.69-2.93-1.94-1.82c.18-.7.29-1.44.29-2.2ZM39.88,38.25c-1.36,0-2.46-1.1-2.46-2.46s1.1-2.46,2.46-2.46,2.46,1.1,2.46,2.46-1.1,2.46-2.46,2.46Z"/>
</svg>