<svg id="Layer_1" data-name="Layer 1" xmlns="http://www.w3.org/2000/svg" viewBox="0 0 82.2 63.2"><path d="M6.91,0H75.29A6.91,6.91,0,0,1,82.2,6.91h0a6.91,6.91,0,0,1-6.91,6.91H6.91A6.91,6.91,0,0,1,0,6.91H0A6.91,6.91,0,0,1,6.91,0Z" transform="translate(0 0)" style="fill:#727171"/><path d="M6.91,49.38H75.29a6.91,6.91,0,0,1,6.91,6.91h0a6.91,6.91,0,0,1-6.91,6.91H6.91A6.91,6.91,0,0,1,0,56.29H0A6.91,6.91,0,0,1,6.91,49.38Z" transform="translate(0 0)" style="fill:#727171"/><rect y="24.69" width="82.2" height="13.82" rx="6.91" style="fill:#727171"/></svg>