<?xml version="1.0" encoding="UTF-8"?>
<svg id="_레이어_1" data-name="레이어 1" xmlns="http://www.w3.org/2000/svg" version="1.1" xmlns:xlink="http://www.w3.org/1999/xlink" viewBox="0 0 300 367.4">
  <defs>
    <style>
      .cls-1 {
        fill: url(#linear-gradient);
      }

      .cls-1, .cls-2, .cls-3 {
        stroke-width: 0px;
      }

      .cls-2 {
        fill: #231815;
      }

      .cls-3 {
        fill: url(#linear-gradient-2);
      }
    </style>
    <linearGradient id="linear-gradient" x1="0" y1="154.7" x2="299.5" y2="154.7" gradientUnits="userSpaceOnUse">
      <stop offset="0" stop-color="#d31a1c"/>
      <stop offset=".2" stop-color="#d1191c"/>
      <stop offset=".3" stop-color="#ca191e"/>
      <stop offset=".4" stop-color="#be1821"/>
      <stop offset=".4" stop-color="#ad1725"/>
      <stop offset=".5" stop-color="#97162b"/>
      <stop offset=".5" stop-color="#7c1432"/>
      <stop offset=".5" stop-color="#5c123b"/>
      <stop offset=".5" stop-color="#52123e"/>
      <stop offset=".6" stop-color="#501541"/>
      <stop offset=".7" stop-color="#4c204d"/>
      <stop offset=".8" stop-color="#463261"/>
      <stop offset=".9" stop-color="#3d4b7d"/>
      <stop offset=".9" stop-color="#326ba0"/>
      <stop offset="1" stop-color="#2592ca"/>
    </linearGradient>
    <linearGradient id="linear-gradient-2" x1="156.7" y1="154.7" x2="299.5" y2="154.7" gradientUnits="userSpaceOnUse">
      <stop offset="0" stop-color="#2b2755"/>
      <stop offset="0" stop-color="#294374"/>
      <stop offset=".1" stop-color="#285b8e"/>
      <stop offset=".2" stop-color="#266fa4"/>
      <stop offset=".3" stop-color="#267fb5"/>
      <stop offset=".4" stop-color="#258ac1"/>
      <stop offset=".6" stop-color="#2590c8"/>
      <stop offset="1" stop-color="#2592ca"/>
    </linearGradient>
  </defs>
  <g>
    <polygon class="cls-1" points="0 0 156.7 0 156.7 149.9 258.8 0 292.5 0 232.9 86.2 299.5 309.5 270.2 309.5 211.7 116.1 156.7 196 156.7 309.5 0 309.5 0 159.5 24.9 159.5 24.9 283.3 131.6 283.3 131.6 25.3 0 25.3 0 0"/>
    <polygon class="cls-3" points="156.7 149.9 258.8 0 292.5 0 232.9 86.2 299.5 309.5 270.2 309.5 211.7 116.1 156.7 196 156.7 149.9"/>
  </g>
  <g>
    <path class="cls-2" d="M8.8,366.5h-2.4c-.5,0-.7-.3-.7-.8v-40.2c0-.5.2-.8.7-.8h2.4c.5,0,.7.3.7.8v40.2c0,.5-.2.8-.7.8Z"/>
    <path class="cls-2" d="M39.6,365.8c0,.5-.2.8-.7.8h-2c-.5,0-.7-.3-.7-.8v-17.8c0-3.5-.6-5.9-1.7-7.4-1.1-1.4-2.7-2.2-4.7-2.2s-4.8.9-6.3,2.5c-1.4,1.7-2.2,4.1-2.2,7.1v17.7c0,.5-.2.8-.7.8h-2c-.5,0-.7-.3-.7-.8v-22.6c0-1.6,0-2.9,0-3.8,0-.9,0-1.8-.1-2.6,0-.3,0-.5.2-.6.2-.1.3-.2.5-.2h1.8c.5,0,.7.3.7.8v3.1c.9-1.6,2.1-2.8,3.4-3.6,1.3-.7,3.2-1.1,5.5-1.1s5.6,1,7.2,3.1c1.6,2.1,2.4,5,2.4,8.8v18.7Z"/>
    <path class="cls-2" d="M61.4,366.6c-1.4.6-2.8.8-4.2.8-2.7,0-4.5-1-5.4-3-.6-1.4-.9-3.8-.9-7.2v-18h-4.8c-.5,0-.7-.3-.7-.8v-1.7c0-.5.2-.8.7-.8h4.8v-7.6c0-.6.2-.8.7-.8h2.1c.4,0,.7.3.7.8v7.6h5.6c.5,0,.7.3.7.8v1.7c0,.5-.2.8-.7.8h-5.6v19.9c0,3.3,1.2,5,3.6,5s2-.2,3.2-.7c.2,0,.3,0,.5,0,.2,0,.2.2.2.5v1.5c.2.5,0,.9-.5,1.1Z"/>
    <path class="cls-2" d="M68.7,352.4c0,1.9.2,3.6.6,5,.4,1.4,1,2.7,1.8,3.6.8,1,1.8,1.7,2.9,2.3,1.1.5,2.4.8,3.8.8s2.6-.1,3.8-.4c1.2-.3,2.3-.7,3.3-1.4.4-.2.7,0,.7.4v2.5c0,.3-.2.6-.6.8-1.1.5-2.3.9-3.5,1.1-1.2.2-2.5.4-3.9.4-4.2,0-7.3-1.3-9.4-4-2.1-2.7-3.2-6.8-3.2-12.2s1.1-8.6,3.2-11.6c2.2-3,5-4.5,8.5-4.5s3.5.4,4.9,1.1c1.4.8,2.6,1.9,3.5,3.4,1.7,2.7,2.6,6.2,2.6,10.7s0,.9,0,1.1c0,.3,0,.5-.2.6-.1.1-.3.2-.5.2-.3,0-.6,0-1.1,0h-17.1ZM83.9,349.2c0-1.5-.1-2.9-.4-4.1-.3-1.2-.7-2.3-1.3-3.3-1.2-2.2-3.1-3.3-5.4-3.3s-4.4,1.1-5.9,3.4c-.6,1-1.1,2.2-1.5,3.5-.4,1.3-.6,2.6-.7,3.8h15.2Z"/>
    <path class="cls-2" d="M107.5,339.4c-.6-.2-1.4-.3-2.4-.3-2.5,0-4.4,1.4-5.6,4.1-.9,2.2-1.4,4.9-1.4,8.2v14.3c0,.5-.2.8-.7.8h-2c-.5,0-.7-.3-.7-.8v-22.9c0-1.4,0-2.5,0-3.3,0-.9,0-1.8,0-2.7,0-.5.2-.8.7-.8h1.9c.5,0,.7.3.7.8v5.5c1.7-4.7,4.1-7.1,7.3-7.1s1.6.1,2.3.3c.2,0,.4.2.5.4.2.2.2.4.2.7v2.4c0,.2,0,.4-.3.5s-.3,0-.5,0Z"/>
    <path class="cls-2" d="M134.6,365.8c0,.5-.2.8-.7.8h-2c-.5,0-.7-.3-.7-.8v-17.8c0-3.5-.6-5.9-1.7-7.4-1.1-1.4-2.7-2.2-4.7-2.2s-4.8.9-6.3,2.5c-1.4,1.7-2.2,4.1-2.2,7.1v17.7c0,.5-.2.8-.7.8h-2c-.5,0-.7-.3-.7-.8v-22.6c0-1.6,0-2.9,0-3.8,0-.9,0-1.8-.1-2.6,0-.3,0-.5.2-.6.2-.1.3-.2.5-.2h1.8c.5,0,.7.3.7.8v3.1c.9-1.6,2.1-2.8,3.4-3.6,1.3-.7,3.2-1.1,5.5-1.1s5.6,1,7.2,3.1c1.6,2.1,2.4,5,2.4,8.8v18.7Z"/>
    <path class="cls-2" d="M144.8,340.7c-.2.1-.3.1-.5,0-.2,0-.2-.2-.2-.4v-2.2c0-.5.2-.9.7-1.2,1.2-.7,2.4-1.2,3.8-1.5,1.3-.3,2.8-.4,4.4-.4,3.4,0,5.8.9,7.4,2.7,1.6,1.8,2.3,4.5,2.3,8.1v14.2c0,1.1,0,2.1,0,3,0,.9,0,1.7.2,2.6,0,.5-.2.8-.7.8h-1.8c-.5,0-.7-.3-.7-.8v-4.4c-.7,1.9-1.9,3.4-3.6,4.5-1.7,1.1-3.5,1.6-5.4,1.6-3.4,0-5.9-1.1-7.5-3.3-.5-.8-.9-1.6-1.2-2.6-.3-1-.4-2-.4-3,0-2.3.5-4.3,1.4-5.9,1-1.6,2.4-2.9,4.4-3.7,2.4-1,6.2-1.5,11.2-1.5h.7v-1.7c0-2.4-.5-4.2-1.4-5.4-1-1.2-2.6-1.9-4.8-1.9s-3,.2-4.3.5c-1.3.4-2.6,1-3.8,1.8ZM159.2,350.6h-1c-1.9,0-3.6,0-5,.3-1.5.2-2.7.6-3.7,1-1.4.6-2.5,1.4-3.2,2.5-.7,1.1-1.1,2.4-1.1,4s.1,1.8.4,2.6c.3.8.7,1.4,1.3,1.9,1,.9,2.4,1.4,4,1.4s2.3-.3,3.3-.8c1-.5,1.9-1.3,2.6-2.3.7-1,1.3-2.2,1.7-3.6.4-1.4.6-3.1.6-5v-1.9Z"/>
    <path class="cls-2" d="M184,366.6c-1.4.6-2.8.8-4.2.8-2.7,0-4.5-1-5.4-3-.6-1.4-.9-3.8-.9-7.2v-18h-4.8c-.5,0-.7-.3-.7-.8v-1.7c0-.5.2-.8.7-.8h4.8v-7.6c0-.6.2-.8.7-.8h2.1c.4,0,.7.3.7.8v7.6h5.6c.5,0,.7.3.7.8v1.7c0,.5-.2.8-.7.8h-5.6v19.9c0,3.3,1.2,5,3.6,5s2-.2,3.2-.7c.2,0,.3,0,.5,0,.2,0,.2.2.2.5v1.5c.2.5,0,.9-.5,1.1Z"/>
    <path class="cls-2" d="M188.9,325.3c0-.8.2-1.4.7-2,.5-.5,1-.8,1.7-.8s1.3.3,1.7.8c.5.5.7,1.2.7,2s-.2,1.4-.7,1.9c-.5.5-1.1.8-1.7.8s-1.2-.3-1.7-.8c-.5-.5-.7-1.2-.7-1.9ZM192.5,366.5h-2.2c-.5,0-.7-.3-.7-.8v-29c0-.5.2-.8.7-.8h2.2c.5,0,.7.3.7.8v29c0,.5-.2.8-.7.8Z"/>
    <path class="cls-2" d="M225.6,351.3c0,2.2-.3,4.3-.9,6.2-.6,1.9-1.3,3.6-2.3,5-1.2,1.6-2.6,2.8-4.2,3.7-1.6.9-3.5,1.3-5.6,1.3s-4-.4-5.6-1.3c-1.7-.9-3.1-2.1-4.3-3.7-.9-1.4-1.7-3.1-2.3-5-.6-1.9-.8-4-.8-6.2,0-4.6,1-8.3,3.1-11.2,2.4-3.3,5.7-4.9,9.9-4.9s4,.4,5.6,1.2c1.6.8,3,2,4.2,3.7,2.1,3,3.1,6.7,3.1,11.2ZM221.9,351.3c0-1.8-.2-3.4-.6-5-.4-1.5-1-2.9-1.7-4.1-1.8-2.4-4-3.6-6.8-3.6s-2.7.3-3.8.9c-1.1.6-2.1,1.5-3,2.7-.8,1.2-1.4,2.6-1.8,4.1-.4,1.5-.6,3.2-.6,5s.2,3.5.6,5c.4,1.6,1,2.9,1.8,4.1,1.8,2.4,4.1,3.7,6.8,3.7s2.7-.3,3.8-1c1.1-.6,2.1-1.6,3-2.7.7-1.2,1.3-2.5,1.7-4.1.4-1.5.6-3.2.6-5Z"/>
    <path class="cls-2" d="M254.2,365.8c0,.5-.2.8-.7.8h-2c-.5,0-.7-.3-.7-.8v-17.8c0-3.5-.6-5.9-1.7-7.4-1.1-1.4-2.7-2.2-4.7-2.2s-4.8.9-6.3,2.5c-1.4,1.7-2.2,4.1-2.2,7.1v17.7c0,.5-.2.8-.7.8h-2c-.5,0-.7-.3-.7-.8v-22.6c0-1.6,0-2.9,0-3.8,0-.9,0-1.8-.1-2.6,0-.3,0-.5.2-.6.2-.1.3-.2.5-.2h1.8c.5,0,.7.3.7.8v3.1c.9-1.6,2.1-2.8,3.4-3.6,1.3-.7,3.2-1.1,5.5-1.1s5.6,1,7.2,3.1c1.6,2.1,2.4,5,2.4,8.8v18.7Z"/>
    <path class="cls-2" d="M264.4,340.7c-.2.1-.3.1-.5,0-.2,0-.2-.2-.2-.4v-2.2c0-.5.2-.9.7-1.2,1.2-.7,2.4-1.2,3.8-1.5,1.3-.3,2.8-.4,4.4-.4,3.4,0,5.8.9,7.4,2.7,1.6,1.8,2.3,4.5,2.3,8.1v14.2c0,1.1,0,2.1,0,3,0,.9,0,1.7.2,2.6,0,.5-.2.8-.7.8h-1.8c-.5,0-.7-.3-.7-.8v-4.4c-.7,1.9-1.9,3.4-3.6,4.5-1.7,1.1-3.5,1.6-5.4,1.6-3.4,0-5.9-1.1-7.5-3.3-.5-.8-.9-1.6-1.2-2.6-.3-1-.4-2-.4-3,0-2.3.5-4.3,1.4-5.9,1-1.6,2.4-2.9,4.4-3.7,2.4-1,6.2-1.5,11.2-1.5h.7v-1.7c0-2.4-.5-4.2-1.4-5.4-1-1.2-2.6-1.9-4.8-1.9s-3,.2-4.3.5c-1.4.4-2.6,1-3.8,1.8ZM278.8,350.6h-1c-1.9,0-3.6,0-5,.3-1.5.2-2.7.6-3.7,1-1.4.6-2.5,1.4-3.2,2.5-.7,1.1-1.1,2.4-1.1,4s.1,1.8.4,2.6c.3.8.7,1.4,1.3,1.9,1,.9,2.4,1.4,4,1.4s2.3-.3,3.3-.8c1-.5,1.9-1.3,2.6-2.3.7-1,1.3-2.2,1.7-3.6.4-1.4.6-3.1.6-5v-1.9Z"/>
    <path class="cls-2" d="M293.7,366.5h-2.2c-.5,0-.7-.3-.7-.8v-43.3c0-.5.2-.8.7-.8h2.2c.5,0,.7.3.7.8v43.3c0,.5-.2.8-.7.8Z"/>
  </g>
</svg>