<svg id="Layer_1" data-name="Layer 1" xmlns="http://www.w3.org/2000/svg" viewBox="0 0 239.78 239.78"><rect width="239.78" height="239.78" style="fill:#e9d734"/><polygon points="96.91 114.49 106.7 114.49 106.7 114.49 101.8 100.58 96.91 114.49" style="fill:#040000"/><path d="M120,41.56c-46.95,0-85,30-85,67,0,23.93,15.91,45,39.84,56.79-1.3,4.49-8.37,28.88-8.64,30.8,0,0-.18,1.44.76,2a2.54,2.54,0,0,0,2,.12c2.68-.37,31.06-20.27,36-23.7a106.6,106.6,0,0,0,15,1c46.95,0,85-30,85-67S167,41.56,120,41.56ZM77.93,98.18c-.1,9.48.08,19.45-.07,28.78,0,3-1.77,3.88-4.09,4.73a1.59,1.59,0,0,1-.81.06c-2.66-.53-4.78-1.47-4.84-4.78-.19-9.32,0-19.31-.08-28.79-2.24-.09-5.45.09-7.53,0-2.9-.19-4.91-2-4.78-4.77s1.58-4.7,4.83-4.75c7.66-.12,17.16-.12,24.83,0,3.27,0,4.72,2,4.82,4.75S88.33,98,85.44,98.18C83.38,98.27,80.19,98.09,77.93,98.18Zm41.2,33.06a7.51,7.51,0,0,1-3.13.68c-2,0-3.6-.82-4.08-2.17l-2.46-6.36H94.54l-2.45,6.36c-.48,1.33-2,2.17-4.09,2.17a7.45,7.45,0,0,1-3.11-.68c-1.36-.62-2.66-2.34-1.17-7L95.48,93.4a6.84,6.84,0,0,1,13.08,0l11.72,30.86C121.77,128.9,120.47,130.65,119.13,131.24Zm24.78,0H128.17a4.62,4.62,0,0,1-4.7-4.5V93.46a5,5,0,0,1,10,0v28.81h10.42a4.5,4.5,0,0,1,.54,9,4.86,4.86,0,0,1-.54,0Zm38.41-3.69a4.9,4.9,0,0,1-8.79,2.28L162,114.61l-1.7,1.7V127a4.91,4.91,0,0,1-9.81,0V93.5a4.91,4.91,0,1,1,9.81,0V104L174,90.33a3.74,3.74,0,0,1,2.72-1.1,5,5,0,0,1,4.82,4.56,3.83,3.83,0,0,1-1.07,3L169.28,108l12.08,16a5,5,0,0,1,.94,3.63Z" transform="translate(-0.22 -0.22)" style="fill:#040000"/></svg>