<?xml version="1.0" encoding="UTF-8"?>
<svg id="_레이어_1" data-name="레이어 1" xmlns="http://www.w3.org/2000/svg" version="1.1" viewBox="0 0 100 100">
  <defs>
    <style>
      .cls-1 {
        fill: #231815;
        stroke-width: 0px;
      }
    </style>
  </defs>
  <path class="cls-1" d="M100,80c0,10.7-8.4,19.4-19,20-.1,0-.2,0-.3,0-.1,0-.2,0-.3,0h-.7c-.1,0-.2,0-.3,0-.1,0-.2,0-.3,0C35.3,99.4,0,63.8,0,20S9,0,20,0s2.2,0,3.3.3c1.1.2,2.3.5,3.3.9l7.5,33c0,0-.2.2-.3.2h0s-10.4,5.3-10.4,5.3c0,0,0,0-.1,0,6,17.3,19.7,30.9,37,37l5.6-10.8,33,7.5c.4,1.1.7,2.2.9,3.3.2,1.1.3,2.2.3,3.3Z"/>
</svg>