<?xml version="1.0" encoding="UTF-8"?>
<svg id="_레이어_1" data-name=" 레이어 1" xmlns="http://www.w3.org/2000/svg" version="1.1" viewBox="0 0 579.4 157.1">
  <defs>
    <style>
      .cls-1 {
        fill: #f8b500;
        stroke-width: 0px;
      }
    </style>
  </defs>
  <rect class="cls-1" x="118.1" y="29.5" width="33.2" height="95.3"/>
  <polygon class="cls-1" points="325.9 67.2 286.8 67.2 286.8 29.5 253.5 29.5 253.5 124.9 286.8 124.9 286.8 96.1 325.9 96.1 325.9 124.9 359.1 124.9 359.1 29.5 325.9 29.5 325.9 67.2"/>
  <polygon class="cls-1" points="1.7 58.4 42.3 58.4 42.3 124.9 75.5 124.9 75.5 58.4 100.4 58.4 116.5 29.5 17.8 29.5 1.7 58.4"/>
  <path class="cls-1" d="M192.1,29.7c-20.9,2.2-37.7,19.8-37.7,41.2v12.5c0,22.9,19.1,41.4,42,41.4h43.5l9.9-17.8v-11.1h-52.2c-8.9,0-16.2-7.2-16.2-16.1v-5.4c0-8.9,7.2-16.1,16.2-16.1h42.3l9.9-17.8v-11h-57.7v.2h0Z"/>
  <path class="cls-1" d="M415,28.1c-27.9,0-50.6,22-50.6,49.1s22.6,49.2,50.6,49.2,50.5-22,50.5-49.2-22.6-49.1-50.5-49.1ZM415,103c-12.5,0-22.6-11.5-22.6-25.8s10.1-25.7,22.6-25.7,22.6,11.5,22.6,25.7-10.1,25.8-22.6,25.8Z"/>
  <path class="cls-1" d="M553.8,75.2c-2.1,9.1-13.1,15.6-13.1,15.6,8.8,0,37.1-10.2,37.1-36s-30.3-25.3-30.3-25.3h-78.4v28.8h21.3v66.5h33.3V58.3h11.5c15.2,0,20.8,7.8,18.8,16.9h-.2Z"/>
  <path class="cls-1" d="M558.6,104.9c-.8-.3-2-.5-3.6-.5h-7.8v17.5h2.3v-7.8h4l1.1.5,1.2,1.2c.5.6,1,1.3,1.7,2.4l2.3,3.7h2.9l-3-4.8-1.9-2.3-1.4-.9c1.7-.3,2.9-.8,3.7-1.6.8-.9,1.2-1.9,1.2-3.2s-.2-1.9-.7-2.7c-.5-1-2-1.6-2-1.6h0ZM557.1,111.8c-.6.2-1.4.3-2.5.3h-5v-5.8h5.6c1.3,0,2.3.3,2.9.8,0,0,.8.6.8,2.3,0,0,0,1.8-1.7,2.4h0Z"/>
  <path class="cls-1" d="M554.2,98.2c-8.5,0-15.3,6.9-15.4,15.4,0,8.5,6.9,15.3,15.4,15.4h0c8.5,0,15.4-6.9,15.4-15.3s-6.9-15.4-15.4-15.4h0ZM554.2,127.3c-7.6,0-13.7-6.2-13.7-13.7s6.2-13.7,13.7-13.7,13.7,6.1,13.7,13.7-6.2,13.7-13.8,13.7h0Z"/>
</svg>