<?xml version="1.0" encoding="utf-8"?>
<!-- Generator: Adobe Illustrator 26.0.1, SVG Export Plug-In . SVG Version: 6.00 Build 0)  -->
<svg version="1.1" id="Layer_1" xmlns="http://www.w3.org/2000/svg" xmlns:xlink="http://www.w3.org/1999/xlink" x="0px" y="0px"
	 viewBox="0 0 575.56 73.52" style="enable-background:new 0 0 575.56 73.52;" xml:space="preserve">
<style type="text/css">
	.st0{fill:#1C1C1A;}
	.st1{fill:#231815;}
	.st2{fill:#D4181D;}
	.st3{fill:#2393CA;}
</style>
<path class="st0" d="M144.27,72.18h-7.35c-0.7,0-1.05-0.39-1.05-1.16V6.23c0-0.77,0.35-1.15,1.05-1.15h7.35
	c0.7,0,1.05,0.38,1.05,1.15V71C145.33,71.79,144.97,72.18,144.27,72.18z"/>
<path class="st0" d="M182.4,72.09c-0.28,0-0.54-0.16-0.69-0.4c-0.18-0.25-0.28-0.54-0.28-0.85v-28.3c0-4.27-0.61-7.35-1.82-9.25
	c-1.24-1.92-3.42-3.01-5.69-2.85c-3.56,0-6.18,1.08-7.88,3.25s-2.54,5.29-2.54,9.39v27.85c0,0.77-0.33,1.16-1,1.16h-6.71
	c-0.28,0-0.54-0.16-0.69-0.4c-0.17-0.25-0.27-0.55-0.27-0.85V35.42c0-2.25,0-4.42,0-6.49s-0.1-3.71-0.21-4.9
	c-0.11-0.77,0.27-1.16,1.13-1.16h6.38c0.59,0,0.84,0.25,0.73,0.73l-0.08,3.23c1.4-1.48,3.04-2.72,4.85-3.67
	c2.02-1.05,4.27-1.58,6.54-1.53c5.17,0,9.11,1.67,11.83,5s4.08,8.18,4.08,14.55v29.75c0,0.77-0.32,1.16-1,1.16L182.4,72.09z"/>
<path class="st0" d="M223.33,71.38c-1.11,0.68-2.32,1.18-3.59,1.47c-1.73,0.45-3.5,0.68-5.29,0.67c-1.92,0.1-3.82-0.43-5.4-1.52
	c-1.27-0.95-2.3-2.19-3-3.61c-0.79-1.71-1.26-3.55-1.37-5.43c-0.16-2.07-0.24-4.89-0.24-8.45V32.13h-6.71
	c-0.26,0-0.51-0.11-0.68-0.31c-0.19-0.21-0.29-0.48-0.28-0.76V24c-0.01-0.28,0.09-0.55,0.28-0.76c0.17-0.2,0.42-0.31,0.68-0.31h6.71
	V10.5c0.01-0.56,0.44-1.02,1-1.06h6.54c0.29-0.01,0.57,0.1,0.77,0.31c0.19,0.2,0.29,0.47,0.29,0.75V23h7.75
	c0.26,0,0.51,0.11,0.69,0.31c0.18,0.21,0.28,0.48,0.28,0.76v7c0,0.28-0.1,0.55-0.28,0.76c-0.17,0.2-0.43,0.31-0.69,0.31h-7.75v23
	c-0.06,2.55,0.02,5.11,0.24,7.65c0.06,0.91,0.66,1.7,1.53,2c0.89,0.24,1.82,0.29,2.74,0.17c0.71-0.12,1.49-0.28,2.35-0.49
	c0.78-0.18,1.53-0.43,2.26-0.76c0.27-0.11,0.46-0.13,0.56,0c0.18,0.25,0.3,0.54,0.33,0.84l0.65,5.88
	C223.73,70.79,223.59,71.14,223.33,71.38z"/>
<path class="st0" d="M262.69,49.75c0.03,0.39-0.1,0.78-0.36,1.07c-0.2,0.22-0.48,0.35-0.77,0.36h-26.58c0.11,3.52,1.3,6.92,3.4,9.74
	c1.95,2.51,4.99,3.92,8.16,3.79c2.04-0.04,4.07-0.29,6.06-0.76c2.21-0.49,4.32-1.38,6.21-2.63c0.38-0.24,0.62-0.21,0.73,0.09
	c0.12,0.37,0.17,0.77,0.16,1.16v6.14c0.02,0.43-0.06,0.85-0.24,1.24c-0.25,0.38-0.59,0.69-1,0.89c-1.77,0.99-3.69,1.66-5.69,2
	c-2.2,0.42-4.43,0.63-6.67,0.63c-6.67,0-11.71-2.21-15.14-6.64s-5.14-10.91-5.13-19.44c0.01-3.17,0.4-6.32,1.16-9.39
	c0.69-2.93,1.84-5.72,3.43-8.28c1.48-2.38,3.48-4.39,5.85-5.88c2.54-1.52,5.45-2.29,8.41-2.22c2.92-0.1,5.81,0.59,8.36,2
	c2.28,1.36,4.21,3.26,5.61,5.52c1.52,2.49,2.59,5.23,3.15,8.1c0.67,3.25,1.01,6.56,1,9.88c0,0.42,0,0.89,0,1.42
	S262.69,49.52,262.69,49.75z M245,30.17c-1.37-0.02-2.72,0.35-3.88,1.07c-1.14,0.72-2.13,1.66-2.9,2.76c-0.85,1.2-1.53,2.52-2,3.91
	c-0.51,1.44-0.87,2.93-1.09,4.45h18.49c-0.02-1.32-0.19-2.63-0.52-3.91c-0.33-1.4-0.86-2.75-1.57-4c-0.68-1.19-1.59-2.23-2.67-3.07
	C247.75,30.56,246.39,30.13,245,30.17z"/>
<path class="st0" d="M292.18,31.86c-0.93-0.26-1.87-0.46-2.83-0.57c-0.7-0.11-1.4-0.11-2.1,0c-1.53,0.31-2.91,1.12-3.92,2.31
	c-1.01,1.17-1.78,2.53-2.26,4c-0.53,1.62-0.86,3.3-1,5c-0.16,1.78-0.24,3.47-0.24,5.07v23.17c0,0.83-0.33,1.25-1,1.25h-6.71
	c-0.59,0-0.88-0.45-0.88-1.34V34.89c0-1.9-0.03-3.8-0.09-5.7c0-1.9-0.07-3.56-0.07-5c0-0.54,0.07-0.88,0.24-1
	c0.23-0.17,0.52-0.24,0.8-0.22h6.71c0.37,0,0.59,0.06,0.64,0.18c0.07,0.2,0.1,0.42,0.09,0.63v4c0.41-0.78,0.91-1.5,1.49-2.16
	c0.6-0.71,1.27-1.35,2-1.93c0.7-0.56,1.47-1.02,2.28-1.39c0.66-0.31,1.37-0.48,2.1-0.5c1,0,1.95,0,2.79,0.05
	c0.94,0.07,1.85,0.39,2.62,0.94c0.25,0.09,0.44,0.31,0.49,0.57c0.05,0.25,0.08,0.5,0.08,0.76v6.67c-0.01,0.29-0.1,0.56-0.24,0.81
	C292.98,31.89,292.66,32,292.18,31.86z"/>
<path class="st0" d="M325.94,72.09c-0.28,0-0.54-0.16-0.68-0.4c-0.19-0.24-0.29-0.54-0.29-0.85v-28.3c0-4.27-0.6-7.35-1.81-9.25
	c-1.24-1.92-3.42-3.01-5.7-2.85c-3.55,0-6.18,1.08-7.88,3.25s-2.55,5.3-2.54,9.39v27.85c0,0.77-0.32,1.16-1,1.16h-6.71
	c-0.28-0.01-0.54-0.16-0.68-0.4c-0.18-0.25-0.28-0.54-0.28-0.85V35.42c0-2.25,0-4.42,0-6.49s-0.1-3.71-0.2-4.9
	c-0.11-0.77,0.26-1.16,1.13-1.16h6.38c0.59,0,0.83,0.25,0.72,0.73l-0.07,3.23c1.41-1.48,3.04-2.72,4.85-3.67
	c2.02-1.05,4.27-1.58,6.54-1.53c5.17,0,9.11,1.67,11.84,5c2.73,3.33,4.08,8.18,4.07,14.55v29.75c0,0.77-0.32,1.16-1,1.16
	L325.94,72.09z"/>
<path class="st0" d="M369.24,72.09c-0.25,0.02-0.5-0.02-0.73-0.13c-0.11-0.09-0.16-0.32-0.16-0.67v-4
	c-1.25,2.01-3.02,3.64-5.13,4.71c-1.94,1-4.08,1.53-6.26,1.56c-2.07,0.02-4.13-0.32-6.09-1c-1.79-0.61-3.42-1.61-4.77-2.94
	c-1.37-1.37-2.43-3.02-3.11-4.84c-0.8-2.17-1.18-4.47-1.13-6.78c-0.06-2.74,0.43-5.46,1.45-8c0.97-2.28,2.55-4.25,4.57-5.69
	c2.4-1.63,5.1-2.76,7.95-3.31c3.85-0.81,7.78-1.19,11.72-1.12c0-1.13-0.11-2.27-0.33-3.38c-0.19-1.05-0.56-2.07-1.09-3
	c-0.51-0.9-1.25-1.65-2.14-2.18c-1.06-0.6-2.26-0.9-3.48-0.85c-2.24-0.03-4.47,0.33-6.58,1.07c-1.96,0.71-3.81,1.66-5.53,2.84
	c-0.86,0.6-1.44,0.87-1.73,0.81s-0.45-0.39-0.45-1v-6.78c0.01-0.25,0.01-0.5,0-0.75c-0.04-0.23,0-0.46,0.11-0.66
	c0.34-0.4,0.75-0.74,1.21-1c1.8-1,3.68-1.83,5.62-2.49c2.34-0.72,4.78-1.06,7.23-1c5.44,0,9.46,1.45,12.07,4.36
	c2.61,2.91,3.92,7.47,3.92,13.71V60.7c0,1.66,0,3.4,0,5.2s0.12,3.4,0.28,4.77c0.11,0.94-0.19,1.42-0.88,1.42H369.24z M354.94,50.73
	c-2.53,1.5-4.02,4.28-3.87,7.21c-0.44,3.28,1.86,6.3,5.15,6.75c0.46,0.06,0.93,0.07,1.39,0.02c2.93,0.07,5.7-1.32,7.39-3.71
	c1.86-2.5,2.79-6.38,2.79-11.67v-1C361.81,48.33,357.53,49.13,354.94,50.73L354.94,50.73z"/>
<path class="st0" d="M408.9,71.38c-1.1,0.68-2.31,1.18-3.57,1.47c-1.73,0.45-3.5,0.68-5.29,0.67c-1.93,0.11-3.84-0.42-5.43-1.52
	c-1.28-0.94-2.31-2.18-3-3.61c-0.8-1.71-1.26-3.55-1.37-5.43c-0.17-2.07-0.26-4.89-0.25-8.45V32.13h-6.66
	c-0.26,0-0.52-0.11-0.69-0.31c-0.19-0.21-0.29-0.48-0.28-0.76V24c-0.01-0.28,0.09-0.55,0.28-0.76c0.19-0.17,0.44-0.26,0.69-0.24h6.7
	V10.5c0.01-0.58,0.47-1.04,1.05-1.06h6.55c0.29-0.01,0.56,0.1,0.76,0.31c0.19,0.2,0.29,0.47,0.29,0.75V23h7.75
	c0.26,0,0.51,0.11,0.68,0.31c0.15,0.2,0.23,0.44,0.22,0.69v7c0.01,0.28-0.1,0.55-0.29,0.76c-0.17,0.2-0.42,0.32-0.68,0.31h-7.75v23
	c-0.06,2.55,0.02,5.11,0.24,7.65c0.06,0.91,0.66,1.7,1.53,2c0.9,0.24,1.83,0.3,2.75,0.17c0.7-0.12,1.48-0.28,2.34-0.49
	c0.78-0.18,1.54-0.43,2.27-0.76c0.26-0.11,0.45-0.13,0.56,0c0.18,0.25,0.29,0.54,0.32,0.84l0.65,5.88
	C409.32,70.74,409.18,71.12,408.9,71.38z"/>
<path class="st0" d="M417.71,13.62c-1.5,0.03-2.94-0.61-3.92-1.75c-1.05-1.17-1.61-2.69-1.57-4.26c-0.05-1.61,0.51-3.18,1.57-4.39
	c0.97-1.16,2.41-1.82,3.92-1.79c1.53-0.03,3,0.62,4,1.79c1.08,1.2,1.66,2.77,1.62,4.39c0.03,1.58-0.55,3.1-1.62,4.26
	C420.7,13.01,419.24,13.65,417.71,13.62z M414.23,72.27c-0.26,0-0.51-0.12-0.68-0.31c-0.19-0.21-0.29-0.48-0.28-0.76V24.39
	c-0.01-0.28,0.09-0.55,0.28-0.76c0.17-0.2,0.42-0.31,0.68-0.31h6.79c0.26,0,0.52,0.11,0.69,0.31c0.19,0.21,0.29,0.48,0.28,0.76V71.2
	c0.01,0.28-0.09,0.55-0.28,0.76c-0.18,0.2-0.43,0.31-0.69,0.31H414.23z"/>
<path class="st0" d="M465.85,65.33c-1.8,2.55-4.19,4.64-6.95,6.09c-5.77,2.77-12.48,2.77-18.25,0c-2.61-1.34-4.88-3.25-6.63-5.6
	c-1.84-2.49-3.19-5.3-4-8.28c-0.91-3.28-1.35-6.66-1.33-10.06c-0.02-3.4,0.42-6.78,1.33-10.05c0.81-2.97,2.16-5.77,4-8.24
	c6.66-8.7,19.11-10.36,27.81-3.7c1.39,1.06,2.63,2.31,3.7,3.7c1.84,2.47,3.19,5.27,4,8.24c0.91,3.27,1.35,6.65,1.33,10.05
	c0.02,3.32-0.41,6.63-1.29,9.84C468.81,60.19,467.55,62.9,465.85,65.33z M449.77,30.33c-1.92-0.04-3.82,0.49-5.44,1.53
	c-1.54,1.03-2.82,2.4-3.75,4c-1.01,1.72-1.74,3.58-2.18,5.52c-0.97,4.07-0.97,8.3,0,12.37c0.44,1.95,1.18,3.83,2.18,5.56
	c0.92,1.61,2.2,2.98,3.75,4c3.36,2.01,7.55,2.01,10.91,0c1.55-1.02,2.83-2.39,3.75-4c1-1.73,1.74-3.61,2.18-5.56
	c0.49-2.03,0.73-4.11,0.73-6.19c0-2.05-0.25-4.1-0.73-6.09c-0.44-1.94-1.17-3.8-2.18-5.52c-0.94-1.6-2.22-2.96-3.75-4
	c-1.62-1.08-3.53-1.64-5.47-1.6V30.33z"/>
<path class="st0" d="M506.65,72.09c-0.28,0-0.54-0.16-0.69-0.4c-0.18-0.25-0.28-0.54-0.28-0.85v-28.3c0-4.27-0.61-7.35-1.82-9.25
	c-1.24-1.92-3.42-3.01-5.7-2.85c-3.55,0-6.18,1.08-7.87,3.25s-2.55,5.29-2.55,9.39v27.85c0,0.77-0.32,1.16-1,1.16h-6.7
	c-0.28,0-0.54-0.16-0.69-0.4c-0.18-0.25-0.27-0.54-0.28-0.85V35.42c0-2.25,0-4.42,0-6.49s-0.1-3.71-0.2-4.9
	c-0.11-0.77,0.27-1.16,1.13-1.16h6.33c0.59,0,0.83,0.25,0.73,0.73l-0.09,3.23c1.41-1.48,3.05-2.72,4.85-3.67
	c2.02-1.05,4.27-1.58,6.55-1.53c5.17,0,9.12,1.67,11.83,5s4.09,8.19,4.13,14.58v29.72c0,0.77-0.32,1.16-1,1.16L506.65,72.09z"/>
<path class="st0" d="M549.94,72.09c-0.25,0.02-0.5-0.02-0.72-0.13c-0.11-0.09-0.16-0.32-0.16-0.67v-4
	c-1.25,2.01-3.03,3.64-5.14,4.71c-1.93,1-4.07,1.54-6.25,1.56c-2.08,0.02-4.14-0.32-6.1-1c-1.79-0.61-3.42-1.61-4.77-2.94
	c-1.37-1.37-2.43-3.02-3.11-4.84c-0.8-2.17-1.18-4.47-1.13-6.78c-0.06-2.74,0.43-5.46,1.45-8c0.97-2.28,2.55-4.25,4.57-5.69
	c2.41-1.66,5.13-2.81,8-3.38c3.85-0.81,7.78-1.19,11.72-1.12c0-1.13-0.11-2.27-0.33-3.38c-0.19-1.05-0.56-2.07-1.08-3
	c-0.52-0.9-1.26-1.65-2.15-2.18c-1.05-0.6-2.26-0.9-3.47-0.85c-2.24-0.03-4.47,0.33-6.59,1.07c-1.96,0.71-3.81,1.66-5.53,2.84
	c-0.86,0.6-1.44,0.87-1.73,0.81s-0.45-0.39-0.45-1v-6.71c0.01-0.25,0.01-0.5,0-0.75c-0.04-0.23,0-0.47,0.12-0.67
	c0.34-0.4,0.75-0.74,1.21-1c1.8-0.99,3.68-1.83,5.62-2.49c2.34-0.72,4.78-1.06,7.23-1c5.44,0,9.46,1.45,12.07,4.36
	c2.62,2.91,3.92,7.47,3.92,13.71V60.7c0,1.66,0,3.4,0,5.2c0.01,1.59,0.11,3.19,0.29,4.77c0.1,0.94-0.19,1.42-0.89,1.42H549.94z
	 M535.64,50.73c-2.53,1.5-4.02,4.28-3.87,7.21c-0.14,1.86,0.5,3.7,1.78,5.06c1.3,1.18,3.01,1.79,4.76,1.7
	c2.93,0.08,5.7-1.31,7.39-3.7c1.86-2.5,2.79-6.38,2.79-11.67v-1C542.51,48.33,538.23,49.13,535.64,50.73z"/>
<path class="st0" d="M567.72,72.27c-0.6,0-0.89-0.36-0.89-1.07V1.07c-0.01-0.28,0.09-0.55,0.28-0.76c0.18-0.2,0.43-0.31,0.69-0.31
	h6.78c0.26,0,0.51,0.11,0.69,0.31c0.19,0.21,0.29,0.48,0.28,0.76V71.2c0.01,0.28-0.09,0.55-0.28,0.76c-0.18,0.2-0.43,0.31-0.69,0.31
	H567.72z"/>
<path class="st1" d="M48.33,38.17c0.14,3.68-2.73,6.77-6.41,6.92c-3.68-0.15-6.54-3.24-6.4-6.92c-0.14-3.68,2.72-6.78,6.4-6.93
	C45.6,31.39,48.47,34.49,48.33,38.17z"/>
<path class="st2" d="M20.5,67.64c-1.33,1.92-3.25,3.35-5.46,4.09C12.71,72.57,10.26,73,7.79,73c-0.9,0-2,0-3.14-0.07
	c-0.96-0.03-1.92-0.12-2.86-0.29C0.59,72.35,0,71.78,0,70.95v-7.3c-0.01-0.19,0.05-0.38,0.18-0.53C0.3,63,0.46,62.93,0.63,62.94
	c0.3,0.02,0.6,0.09,0.89,0.18c0.95,0.27,1.92,0.43,2.91,0.46c1.1,0,2,0.07,2.73,0.07c1.73,0.06,3.38-0.72,4.43-2.09
	c1.1-1.39,1.66-3.93,1.66-7.6V6.14c0-0.29,0.13-0.57,0.35-0.76c0.22-0.19,0.51-0.3,0.81-0.3h8c0.29,0,0.58,0.1,0.8,0.3
	c0.23,0.19,0.36,0.47,0.36,0.76v47.35c0.01,2.68-0.23,5.36-0.72,8C22.49,63.68,21.69,65.77,20.5,67.64z"/>
<path class="st3" d="M96.95,72.09c-0.47,0.03-0.95-0.05-1.39-0.22c-0.37-0.25-0.69-0.57-0.94-0.94L75.33,42.54l-6,7.3v21.27
	c0.07,0.51-0.28,0.99-0.8,1.06c-0.07,0.01-0.13,0.01-0.2,0.01h-8c-0.55,0.04-1.03-0.37-1.07-0.92c0-0.05,0-0.1,0-0.15v-65
	c-0.06-0.52,0.32-0.98,0.83-1.03c0.08-0.01,0.16-0.01,0.24,0h8c0.52-0.04,0.97,0.35,1.01,0.87c0,0.07,0,0.14-0.01,0.2v28.31
	l23-28.14c0.27-0.5,0.77-0.83,1.34-0.89h9.76c0.67,0,1.03,0.09,1.08,0.27c0,0.18-0.09,0.5-0.45,1L81.82,34.53l24.89,36.4
	c0.53,0.77,0.29,1.16-0.72,1.16L96.95,72.09z"/>
</svg>
