<svg id="Layer_1" data-name="Layer 1" xmlns="http://www.w3.org/2000/svg" viewBox="0 0 30 30"><circle cx="15" cy="15" r="15" style="fill:#f7f8f8"/><path d="M10,21.94V17H8.38v-.66h4V17H10.7v4.91Z" transform="translate(0 0)" style="fill:#231815"/><path d="M12.43,19.22a3.24,3.24,0,0,1,.67-2.17,2.16,2.16,0,0,1,1.73-.78,2.21,2.21,0,0,1,1.25.37,2.35,2.35,0,0,1,.85,1,3.9,3.9,0,0,1,0,3A2.23,2.23,0,0,1,14.82,22a2.2,2.2,0,0,1-1.26-.38,2.43,2.43,0,0,1-.85-1A3.42,3.42,0,0,1,12.43,19.22Zm.68,0a2.35,2.35,0,0,0,.49,1.58,1.51,1.51,0,0,0,1.22.58,1.54,1.54,0,0,0,1.23-.58,2.56,2.56,0,0,0,.48-1.66,3.29,3.29,0,0,0-.2-1.19,1.74,1.74,0,0,0-.61-.79,1.54,1.54,0,0,0-.89-.28,1.6,1.6,0,0,0-1.21.54A2.58,2.58,0,0,0,13.11,19.24Z" transform="translate(0 0)" style="fill:#231815"/><path d="M17.79,21.94V16.37h1.89a4.67,4.67,0,0,1,.76.05,1.4,1.4,0,0,1,.62.26,1.32,1.32,0,0,1,.4.54,1.73,1.73,0,0,1,.16.76,1.84,1.84,0,0,1-.41,1.2,1.82,1.82,0,0,1-1.47.49H18.45v2.27ZM18.45,19h1.3a1.25,1.25,0,0,0,.91-.27,1,1,0,0,0,.27-.75,1.08,1.08,0,0,0-.16-.6.71.71,0,0,0-.42-.32,2.15,2.15,0,0,0-.61,0H18.45Z" transform="translate(0 0)" style="fill:#231815"/><path d="M21.72,13.5,15.21,8h0l-.06,0h-.24l-.06,0h0L8.28,13.5a.33.33,0,1,0,.43.51L15,8.73,21.29,14a.33.33,0,0,0,.43-.51Z" transform="translate(0 0)" style="fill:#231815"/></svg>