<svg id="Layer_1" data-name="Layer 1" xmlns="http://www.w3.org/2000/svg" viewBox="0 0 30 30"><circle cx="15" cy="15" r="15" style="fill:#f7f8f8"/><path d="M21.79,13.83,15.41,8.48l-.06,0-.12-.07-.11,0h-.24l-.11,0-.12.07-.06,0L8.21,13.83a.64.64,0,0,0,.82,1l6-5,6,5a.64.64,0,0,0,.82-1Z" transform="translate(0 0)" style="fill:#b5b5b6"/><path d="M21.79,20.54l-6.38-5.36-.06,0-.12-.06a.2.2,0,0,0-.11,0L15,15l-.12,0a.2.2,0,0,0-.11,0l-.12.06-.06,0L8.21,20.54a.64.64,0,1,0,.82,1l6-5,6,5a.64.64,0,1,0,.82-1Z" transform="translate(0 0)" style="fill:#b5b5b6"/></svg>