<?xml version="1.0" encoding="UTF-8"?>
<svg id="_레이어_1" data-name=" 레이어 1" xmlns="http://www.w3.org/2000/svg" version="1.1" viewBox="0 0 579.4 157.1">
  <defs>
    <style>
      .cls-1 {
        fill: #030000;
      }

      .cls-1, .cls-2, .cls-3, .cls-4 {
        stroke-width: 0px;
      }

      .cls-2 {
        fill: #ec1b23;
      }

      .cls-3 {
        fill: #808183;
      }

      .cls-4 {
        fill: #fff;
      }
    </style>
  </defs>
  <g>
    <polygon class="cls-1" points="122.8 32.5 126.7 104.9 127.1 104.9 133.3 32.5 150.4 32.5 155.7 104.9 156.2 104.9 161.2 32.5 174.7 32.5 164 124.6 146.9 124.6 142 51.5 141.6 51.5 135.2 124.6 117.9 124.6 109.4 32.5 122.8 32.5"/>
    <path class="cls-1" d="M217.6,106.3c0,4.3-.3,7.7-.7,10.2-.5,2.6-1.5,4.5-2.9,5.9s-3.4,2.2-5.9,2.7c-2.5.4-5.7.7-9.7.6-4,0-7.2-.2-9.7-.7-2.5-.4-4.4-1.3-5.8-2.7-1.4-1.4-2.3-3.3-2.8-5.9s-.8-6-.8-10.2v-55.6c0-4.3.2-7.7.8-10.2.5-2.5,1.5-4.5,2.8-5.8,1.4-1.3,3.4-2.3,5.8-2.7,2.5-.4,5.7-.7,9.7-.7s7.2.2,9.7.7c2.5.4,4.4,1.3,5.9,2.7,1.4,1.4,2.4,3.3,2.9,5.8s.7,5.9.7,10.2v55.6h0ZM204.1,50.7c0-3.1-.3-5.1-1-6s-2.3-1.3-4.7-1.3-2.2,0-3,.3l-1.8,1.1-.8,2.3c-.1,1-.2,2.2-.2,3.7v55.6c0,1.6,0,2.9.2,3.9l.8,2.3,1.8,1.1c.7.2,1.7.3,3,.3s2.2,0,3-.3l1.8-1.2.8-2.3c.1-1,.2-2.2.2-3.8v-55.6h-.1Z"/>
    <path class="cls-1" d="M240.3,124.6h-13.4V32.5h19.1c4,0,7.2.2,9.7.6,2.5.4,4.4,1.3,5.9,2.7,1.4,1.4,2.4,3.3,2.9,5.7s.8,5.7.8,9.7v9.7c0,2.4-.3,4.4-.8,5.9s-1.2,2.7-2,3.7l-2.7,2-2.9,1v.5c1.3.3,2.4.7,3.4,1.2s1.9,1.3,2.6,2.3c.7,1.1,1.3,2.4,1.7,4,.4,1.6.6,3.7.6,6.3v36.7h-13.5v-38.8c0-2.5-.3-4.2-.9-5.2-.6-1-2.1-1.4-4.4-1.4h-6.1v45.5h0ZM240.3,68.5h6.1c2.2,0,3.6-.4,4.3-1.3s1.1-2.4,1.1-4.7v-11.3c0-1.5,0-2.7-.2-3.6l-.8-2.2-1.8-1.1c-.8-.2-1.8-.3-3-.3h-5.7v24.4h0Z"/>
    <polygon class="cls-1" points="304.7 43.7 294.7 43.7 294.7 124.6 281.3 124.6 281.3 43.7 271.1 43.7 271.1 32.5 304.7 32.5 304.7 43.7"/>
    <polygon class="cls-1" points="349.9 124.6 336.4 124.6 336.4 74.3 324.7 74.3 324.7 124.6 311.3 124.6 311.3 32.5 324.7 32.5 324.7 62.9 336.4 62.9 336.4 32.5 349.9 32.5 349.9 124.6"/>
    <polygon class="cls-1" points="395.9 32.5 382.1 92.1 382.1 124.6 368.7 124.6 368.7 92.1 355.4 32.5 368.7 32.5 375.4 74.1 375.8 74.1 382.8 32.5 395.9 32.5"/>
    <polygon class="cls-2" points="451.4 43.7 441.3 43.7 441.3 124.6 427.9 124.6 427.9 43.7 417.8 43.7 417.8 32.5 451.4 32.5 451.4 43.7"/>
    <path class="cls-1" d="M494.5,106.3c0,4.3-.2,7.7-.7,10.2-.5,2.6-1.5,4.5-2.9,5.9s-3.4,2.2-5.9,2.7c-2.5.4-5.7.7-9.7.7s-7.2-.2-9.7-.7c-2.5-.4-4.4-1.3-5.8-2.7s-2.3-3.3-2.8-5.9-.8-6-.8-10.2v-55.6c0-4.3.2-7.7.8-10.2.5-2.5,1.5-4.5,2.8-5.8,1.4-1.4,3.4-2.3,5.8-2.7,2.5-.4,5.7-.7,9.7-.7s7.2.2,9.7.7c2.5.4,4.4,1.3,5.9,2.7,1.4,1.4,2.4,3.3,2.9,5.8s.7,5.9.7,10.2v55.6ZM481,50.7c0-3.1-.3-5.1-1-6s-2.3-1.3-4.7-1.3-2.2,0-3,.3l-1.7,1.1-.8,2.3c-.1,1-.2,2.2-.2,3.7v55.6c0,1.6,0,2.9.2,3.9l.8,2.3,1.7,1.1c.7.2,1.7.3,3,.3s2.2,0,3-.3l1.8-1.2.8-2.3c.1-1,.2-2.2.2-3.8v-55.6h0Z"/>
    <path class="cls-1" d="M541.3,106.3c0,4.3-.2,7.7-.7,10.2-.5,2.6-1.5,4.5-2.9,5.9-1.5,1.4-3.4,2.2-5.9,2.7-2.5.4-5.7.7-9.7.7s-7.2-.2-9.7-.7c-2.5-.4-4.4-1.3-5.8-2.7s-2.3-3.3-2.8-5.9-.8-6-.8-10.2v-55.6c0-4.3.3-7.7.8-10.2s1.5-4.5,2.9-5.8,3.3-2.3,5.8-2.7c2.5-.4,5.7-.7,9.7-.7s7.2.2,9.7.7c2.5.4,4.4,1.3,5.9,2.7,1.4,1.4,2.4,3.3,2.9,5.8s.7,5.9.7,10.2v55.6h-.1ZM527.7,50.7c0-3.1-.4-5.1-1.1-6-.7-.9-2.3-1.3-4.7-1.3s-2.2,0-3,.3l-1.7,1.1-.8,2.3c0,1-.2,2.2-.2,3.7v55.6c0,1.6,0,2.9.2,3.9l.8,2.3,1.7,1.1c.7.2,1.7.3,3,.3s2.2,0,3-.3l1.8-1.2.8-2.3c0-1,.2-2.2.2-3.8v-55.6h0Z"/>
    <polygon class="cls-1" points="577.8 124.6 550.6 124.6 550.6 32.5 564 32.5 564 113 577.8 113 577.8 124.6"/>
  </g>
  <g>
    <rect class="cls-3" x="1.7" y="32.5" width="103.4" height="92.1"/>
    <path class="cls-4" d="M81.2,32.5l-8.9,92.1h-25c-2.3-14.2-4.3-30.3-6.1-48.3-.8,7.7-2.7,23.8-5.6,48.3H10.7L1.7,32.5h19.5l2.1,32.1,2,31.1c.7-16.1,2.6-37.1,5.5-63.2h20.8c.3,2.7,1,12.8,2.2,30.4l2.2,35c1.1-22.3,3-44.1,5.6-65.4h19.6Z"/>
    <polygon class="cls-2" points="105.1 32.5 105.1 50.9 91.5 50.9 83 124.6 62.9 124.6 71.5 50.9 59.6 50.9 61.7 32.5 105.1 32.5"/>
  </g>
</svg>